HIERARCHY
ROOT newVegas:Hips
{
	OFFSET 0.000000 96.479958 0.000000
	CHANNELS 6 Xposition Yposition Zposition Xrotation Yrotation Zrotation
	JOINT newVegas:Pelvis
	{
		OFFSET 0.000000 0.000000 0.000000
		CHANNELS 3 Xrotation Yrotation Zrotation
		JOINT newVegas:LeftUpLeg
		{
			OFFSET 18.735201 -5.666702 -4.541200
			CHANNELS 3 Xrotation Yrotation Zrotation
			JOINT newVegas:LeftLeg
			{
				OFFSET -0.021200 -31.938179 0.493100
				CHANNELS 3 Xrotation Yrotation Zrotation
				JOINT newVegas:LeftFoot
				{
					OFFSET 0.021200 -31.938179 -4.336299
					CHANNELS 3 Xrotation Yrotation Zrotation
					JOINT newVegas:LeftToeBase
					{
						OFFSET 0.943001 -26.722000 15.023500
						CHANNELS 3 Xrotation Yrotation Zrotation
						End Site
						{
							OFFSET 0.000000 30.670183 0.000000
						}
					}
				}
				JOINT newVegas:Left_PantLeg
				{
					OFFSET 0.663870 -9.044666 -1.108900
					CHANNELS 3 Xrotation Yrotation Zrotation
					End Site
					{
						OFFSET 1.415995 20.635357 0.000000
					}
				}
			}
		}
		JOINT newVegas:RightUpLeg
		{
			OFFSET -18.735201 -5.666702 -4.541200
			CHANNELS 3 Xrotation Yrotation Zrotation
			JOINT newVegas:RightLeg
			{
				OFFSET 0.018946 -31.938133 0.493100
				CHANNELS 3 Xrotation Yrotation Zrotation
				JOINT newVegas:RightFoot
				{
					OFFSET -0.018946 -31.938126 -4.336299
					CHANNELS 3 Xrotation Yrotation Zrotation
					JOINT newVegas:RightToeBase
					{
						OFFSET -0.943001 -26.722004 15.023500
						CHANNELS 3 Xrotation Yrotation Zrotation
						End Site
						{
							OFFSET 0.000000 30.670187 0.000000
						}
					}
				}
				JOINT newVegas:Right_PantLeg
				{
					OFFSET -0.661674 -9.044716 -1.108900
					CHANNELS 3 Xrotation Yrotation Zrotation
					End Site
					{
						OFFSET -1.415958 20.635269 0.000000
					}
				}
			}
		}
	}
	JOINT newVegas:Spine
	{
		OFFSET 0.000000 10.199997 -0.299500
		CHANNELS 3 Xrotation Yrotation Zrotation
		JOINT newVegas:Spine1
		{
			OFFSET 0.000000 11.900002 -1.516600
			CHANNELS 3 Xrotation Yrotation Zrotation
			JOINT newVegas:Spine2
			{
				OFFSET 0.000000 13.600006 -2.842500
				CHANNELS 3 Xrotation Yrotation Zrotation
				JOINT newVegas:Neck
				{
					OFFSET 0.000000 9.624100 -2.890100
					CHANNELS 3 Xrotation Yrotation Zrotation
					JOINT newVegas:Head
					{
						OFFSET 0.000000 14.068802 -1.351900
						CHANNELS 3 Xrotation Yrotation Zrotation
						JOINT newVegas:Hair_Back
						{
							OFFSET 0.000000 3.231903 -17.524799
							CHANNELS 3 Xrotation Yrotation Zrotation
							End Site
							{
								OFFSET 0.000000 19.849884 0.000000
							}
						}
						JOINT newVegas:Hair_Front
						{
							OFFSET 0.000000 31.260406 4.573800
							CHANNELS 3 Xrotation Yrotation Zrotation
							JOINT newVegas:Hair_Front1
							{
								OFFSET 0.000000 2.284103 11.993300
								CHANNELS 3 Xrotation Yrotation Zrotation
								JOINT newVegas:Hair_Front2
								{
									OFFSET 0.000000 2.284103 11.993300
									CHANNELS 3 Xrotation Yrotation Zrotation
									End Site
									{
										OFFSET 0.000000 12.208862 0.000000
									}
								}
							}
						}
						JOINT newVegas:Jowel
						{
							OFFSET 0.000000 -7.458206 6.864100
							CHANNELS 3 Xrotation Yrotation Zrotation
							End Site
							{
								OFFSET 0.000000 19.849884 0.000000
							}
						}
					}
				}
				JOINT newVegas:LeftShoulder
				{
					OFFSET 15.263000 10.923401 -0.547700
					CHANNELS 3 Xrotation Yrotation Zrotation
					JOINT newVegas:LeftArm
					{
						OFFSET 25.438599 -2.830597 -13.032500
						CHANNELS 3 Xrotation Yrotation Zrotation
						JOINT newVegas:LeftForeArm
						{
							OFFSET 29.960503 0.000000 0.000000
							CHANNELS 3 Xrotation Yrotation Zrotation
							JOINT newVegas:LeftHand
							{
								OFFSET 27.849251 0.000000 0.000000
								CHANNELS 3 Xrotation Yrotation Zrotation
								JOINT newVegas:LeftHandThumb1
								{
									OFFSET 4.487587 -3.305161 6.305391
									CHANNELS 3 Xrotation Yrotation Zrotation
									JOINT newVegas:LeftHandThumb2
									{
										OFFSET 5.480453 -3.164139 3.164143
										CHANNELS 3 Xrotation Yrotation Zrotation
										JOINT newVegas:LeftHandThumb3
										{
											OFFSET 5.159721 -2.978973 2.978967
											CHANNELS 3 Xrotation Yrotation Zrotation
											End Site
											{
												OFFSET 2.494507 5.926697 1.738678
											}
										}
									}
								}
								JOINT newVegas:LeftHandIndex1
								{
									OFFSET 18.578728 -0.527832 5.208049
									CHANNELS 3 Xrotation Yrotation Zrotation
									JOINT newVegas:LeftHandIndex2
									{
										OFFSET 3.192009 0.000000 0.000000
										CHANNELS 3 Xrotation Yrotation Zrotation
										JOINT newVegas:LeftHandIndex3
										{
											OFFSET 3.835129 0.000000 0.000000
											CHANNELS 3 Xrotation Yrotation Zrotation
											End Site
											{
												OFFSET -0.034599 3.816971 0.371180
											}
										}
									}
								}
								JOINT newVegas:LeftHandMiddle1
								{
									OFFSET 18.476105 0.000000 0.000000
									CHANNELS 3 Xrotation Yrotation Zrotation
									JOINT newVegas:LeftHandMiddle2
									{
										OFFSET 3.324875 0.000000 0.000000
										CHANNELS 3 Xrotation Yrotation Zrotation
										JOINT newVegas:LeftHandMiddle3
										{
											OFFSET 4.596550 0.000000 0.000000
											CHANNELS 3 Xrotation Yrotation Zrotation
											End Site
											{
												OFFSET 0.057701 4.578827 0.399218
											}
										}
									}
								}
								JOINT newVegas:LeftHandRing1
								{
									OFFSET 17.732719 0.121887 -4.201567
									CHANNELS 3 Xrotation Yrotation Zrotation
									JOINT newVegas:LeftHandRing2
									{
										OFFSET 2.733170 0.000000 0.000000
										CHANNELS 3 Xrotation Yrotation Zrotation
										JOINT newVegas:LeftHandRing3
										{
											OFFSET 3.178268 0.000000 0.000000
											CHANNELS 3 Xrotation Yrotation Zrotation
											End Site
											{
												OFFSET 0.119102 3.170624 0.185394
											}
										}
									}
								}
								JOINT newVegas:LeftHandPinky1
								{
									OFFSET 15.989624 -0.606689 -7.535461
									CHANNELS 3 Xrotation Yrotation Zrotation
									JOINT newVegas:LeftHandPinky2
									{
										OFFSET 2.538986 0.000000 0.000000
										CHANNELS 3 Xrotation Yrotation Zrotation
										JOINT newVegas:LeftHandPinky3
										{
											OFFSET 2.593102 0.000000 0.000000
											CHANNELS 3 Xrotation Yrotation Zrotation
											End Site
											{
												OFFSET -0.150902 2.584198 0.152708
											}
										}
									}
								}
							}
							JOINT newVegas:Left_Sleeve
							{
								OFFSET 0.267448 -0.649796 0.577675
								CHANNELS 3 Xrotation Yrotation Zrotation
								End Site
								{
									OFFSET 0.000000 15.991241 0.000000
								}
							}
							JOINT newVegas:Left_CapeC
							{
								OFFSET 15.715958 -8.608795 -6.935905
								CHANNELS 3 Xrotation Yrotation Zrotation
								JOINT newVegas:Left_CapeC1
								{
									OFFSET 0.000000 -8.688499 0.000000
									CHANNELS 3 Xrotation Yrotation Zrotation
									End Site
									{
										OFFSET 0.000000 8.688499 0.000000
									}
								}
							}
						}
						JOINT newVegas:Left_CapeB
						{
							OFFSET 26.118385 -8.608795 -7.079235
							CHANNELS 3 Xrotation Yrotation Zrotation
							JOINT newVegas:Left_CapeB1
							{
								OFFSET 0.000000 -8.688499 0.000000
								CHANNELS 3 Xrotation Yrotation Zrotation
								End Site
								{
									OFFSET 0.000000 8.688499 0.000000
								}
							}
						}
						JOINT newVegas:Left_CapeA
						{
							OFFSET 5.115639 -8.608795 -10.395809
							CHANNELS 3 Xrotation Yrotation Zrotation
							JOINT newVegas:Left_CapeA1
							{
								OFFSET 0.000000 -8.688499 0.000000
								CHANNELS 3 Xrotation Yrotation Zrotation
								End Site
								{
									OFFSET 0.000000 8.688499 0.000000
								}
							}
						}
					}
				}
				JOINT newVegas:RightShoulder
				{
					OFFSET -15.263000 10.923401 -0.547700
					CHANNELS 3 Xrotation Yrotation Zrotation
					JOINT newVegas:RightArm
					{
						OFFSET -25.438599 -2.830597 -13.032500
						CHANNELS 3 Xrotation Yrotation Zrotation
						JOINT newVegas:RightForeArm
						{
							OFFSET -29.960503 0.000000 0.000000
							CHANNELS 3 Xrotation Yrotation Zrotation
							JOINT newVegas:RightHand
							{
								OFFSET -27.849251 0.000000 0.000000
								CHANNELS 3 Xrotation Yrotation Zrotation
								JOINT newVegas:RightHandThumb1
								{
									OFFSET -4.487587 -3.305161 6.305391
									CHANNELS 3 Xrotation Yrotation Zrotation
									JOINT newVegas:RightHandThumb2
									{
										OFFSET -5.480453 -3.164139 3.164143
										CHANNELS 3 Xrotation Yrotation Zrotation
										JOINT newVegas:RightHandThumb3
										{
											OFFSET -5.159721 -2.978973 2.978967
											CHANNELS 3 Xrotation Yrotation Zrotation
											End Site
											{
												OFFSET -2.494507 5.926697 1.738678
											}
										}
									}
								}
								JOINT newVegas:RightHandIndex1
								{
									OFFSET -18.578728 -0.527832 5.208049
									CHANNELS 3 Xrotation Yrotation Zrotation
									JOINT newVegas:RightHandIndex2
									{
										OFFSET -3.192009 0.000000 0.000000
										CHANNELS 3 Xrotation Yrotation Zrotation
										JOINT newVegas:RightHandIndex3
										{
											OFFSET -3.835129 0.000000 0.000000
											CHANNELS 3 Xrotation Yrotation Zrotation
											End Site
											{
												OFFSET 0.034599 3.816971 0.371180
											}
										}
									}
								}
								JOINT newVegas:RightHandMiddle1
								{
									OFFSET -18.476105 0.000000 0.000000
									CHANNELS 3 Xrotation Yrotation Zrotation
									JOINT newVegas:RightHandMiddle2
									{
										OFFSET -3.324875 0.000000 0.000000
										CHANNELS 3 Xrotation Yrotation Zrotation
										JOINT newVegas:RightHandMiddle3
										{
											OFFSET -4.596550 0.000000 0.000000
											CHANNELS 3 Xrotation Yrotation Zrotation
											End Site
											{
												OFFSET -0.057701 4.578827 0.399218
											}
										}
									}
								}
								JOINT newVegas:RightHandRing1
								{
									OFFSET -17.732719 0.121887 -4.201567
									CHANNELS 3 Xrotation Yrotation Zrotation
									JOINT newVegas:RightHandRing2
									{
										OFFSET -2.733170 0.000000 0.000000
										CHANNELS 3 Xrotation Yrotation Zrotation
										JOINT newVegas:RightHandRing3
										{
											OFFSET -3.178268 0.000000 0.000000
											CHANNELS 3 Xrotation Yrotation Zrotation
											End Site
											{
												OFFSET -0.119102 3.170624 0.185394
											}
										}
									}
								}
								JOINT newVegas:RightHandPinky1
								{
									OFFSET -15.989624 -0.606689 -7.535461
									CHANNELS 3 Xrotation Yrotation Zrotation
									JOINT newVegas:RightHandPinky2
									{
										OFFSET -2.538986 0.000000 0.000000
										CHANNELS 3 Xrotation Yrotation Zrotation
										JOINT newVegas:RightHandPinky3
										{
											OFFSET -2.593102 0.000000 0.000000
											CHANNELS 3 Xrotation Yrotation Zrotation
											End Site
											{
												OFFSET 0.150902 2.584198 0.152708
											}
										}
									}
								}
							}
							JOINT newVegas:Right_CapeC
							{
								OFFSET -15.715958 -8.608795 -6.935905
								CHANNELS 3 Xrotation Yrotation Zrotation
								JOINT newVegas:Right_CapeC1
								{
									OFFSET 0.000000 -8.688499 0.000000
									CHANNELS 3 Xrotation Yrotation Zrotation
									End Site
									{
										OFFSET 0.000000 8.688499 0.000000
									}
								}
							}
							JOINT newVegas:Right_Sleeve
							{
								OFFSET -0.267448 -0.649994 0.577675
								CHANNELS 3 Xrotation Yrotation Zrotation
								End Site
								{
									OFFSET 0.000000 15.991302 0.000000
								}
							}
						}
						JOINT newVegas:Right_CapeA
						{
							OFFSET -5.115540 -8.608795 -10.395824
							CHANNELS 3 Xrotation Yrotation Zrotation
							JOINT newVegas:Right_CapeA1
							{
								OFFSET 0.000000 -8.688499 0.000000
								CHANNELS 3 Xrotation Yrotation Zrotation
								End Site
								{
									OFFSET 0.000000 8.688499 0.000000
								}
							}
						}
						JOINT newVegas:Right_CapeB
						{
							OFFSET -26.118187 -8.608795 -7.079266
							CHANNELS 3 Xrotation Yrotation Zrotation
							JOINT newVegas:Right_CapeB1
							{
								OFFSET 0.000000 -8.688499 0.000000
								CHANNELS 3 Xrotation Yrotation Zrotation
								End Site
								{
									OFFSET 0.000000 8.688499 0.000000
								}
							}
						}
					}
				}
				JOINT newVegas:Left_Collar
				{
					OFFSET 18.625099 8.655502 8.828100
					CHANNELS 3 Xrotation Yrotation Zrotation
					JOINT newVegas:Left_Collar1
					{
						OFFSET 14.783401 10.540405 -1.259500
						CHANNELS 3 Xrotation Yrotation Zrotation
						End Site
						{
							OFFSET 0.000000 18.199875 0.000000
						}
					}
				}
				JOINT newVegas:Collar_Back
				{
					OFFSET 0.000000 15.630707 -20.132601
					CHANNELS 3 Xrotation Yrotation Zrotation
					End Site
					{
						OFFSET 0.000000 22.523010 0.000000
					}
				}
				JOINT newVegas:Left_Peck
				{
					OFFSET 17.239599 -5.132599 25.482599
					CHANNELS 3 Xrotation Yrotation Zrotation
					End Site
					{
						OFFSET 0.000000 22.523010 0.000000
					}
				}
				JOINT newVegas:Right_Peck
				{
					OFFSET -17.239599 -5.132202 25.482599
					CHANNELS 3 Xrotation Yrotation Zrotation
					End Site
					{
						OFFSET 0.000000 22.523010 0.000000
					}
				}
				JOINT newVegas:Right_Collar
				{
					OFFSET -18.625099 8.655792 8.828100
					CHANNELS 3 Xrotation Yrotation Zrotation
					JOINT newVegas:Right_Collar1
					{
						OFFSET -14.783401 10.539993 -1.259500
						CHANNELS 3 Xrotation Yrotation Zrotation
						End Site
						{
							OFFSET 0.000000 18.199631 0.000000
						}
					}
				}
			}
		}
		JOINT newVegas:Belly
		{
			OFFSET 0.000000 -6.540398 9.014299
			CHANNELS 3 Xrotation Yrotation Zrotation
			End Site
			{
				OFFSET 0.000000 11.566666 0.000000
			}
		}
	}
	JOINT newVegas:ElvisFacialAnim_Joint
	{
		OFFSET 1.000000 -95.330101 -8.825800
		CHANNELS 3 Xrotation Yrotation Zrotation
		End Site
		{
			OFFSET 0.000000 35.315800 0.000000
		}
	}
}
MOTION
Frames: 4
Frame Time: 0.016667
60.545914 75.078407 235.820251 1.084066 27.893103 -14.602820 -0.000000 -0.000000 0.000000 -58.712368 17.835041 3.123708 107.230275 12.363269 0.994901 21.348516 3.549359 26.139021 -0.000002 0.000000 -0.000001 0.000002 0.000000 -0.000002 -46.254748 7.170141 -5.184745 62.983872 10.274578 0.452752 -21.798069 -1.519179 17.755531 -0.000000 0.000001 0.000000 0.000001 0.000002 -0.000001 4.381677 -2.604824 -1.832596 3.685481 -1.692998 1.426703 3.657013 -1.820091 1.396210 0.346643 0.991196 0.316290 0.346676 0.991200 0.316282 -0.000000 -0.000001 0.000000 0.346707 0.991239 0.316279 0.346517 0.991110 0.316304 -0.000000 0.000000 0.000002 -0.000000 -0.000001 -0.000000 0.537710 -0.925230 -8.721429 28.704785 -17.140804 -55.244349 0.000030 -63.812012 0.000039 -14.162590 -33.316249 32.504047 5.358055 -0.141364 9.666150 3.545754 27.155818 3.560563 -0.000000 -0.000001 -0.000004 -1.578842 0.825930 -19.703504 0.405083 2.870994 -21.069213 0.000000 0.000002 -0.000001 0.409504 7.162235 -25.647939 0.416499 2.993227 -22.185337 0.000003 0.000001 -0.000002 2.386878 10.570832 -32.882365 0.471671 2.115272 -18.421983 0.000002 0.000003 0.000003 2.967948 13.388253 -36.938906 0.139960 1.667043 -18.441907 0.000000 -0.000002 -0.000002 0.000001 0.000003 0.000000 0.000001 0.000003 0.000000 0.000001 0.000004 0.000000 0.000001 0.000002 -0.000000 0.000001 0.000001 -0.000000 0.000001 0.000002 -0.000000 0.000001 0.000001 -0.000000 0.815847 -4.239263 12.335984 15.586526 20.224388 47.923302 0.000747 92.611723 -0.000675 -14.992163 28.643990 -6.764675 0.789356 -8.211547 -4.825409 0.020109 -13.361247 -9.371030 0.000000 -0.000001 0.000001 -1.070493 -2.247362 17.231251 0.405445 -2.871951 21.079314 -0.000002 -0.000002 -0.000000 0.438997 -7.256192 26.595138 0.417446 -2.995661 22.211551 -0.000002 0.000000 -0.000000 2.698257 -11.184214 32.166086 0.472421 -2.116941 18.440367 -0.000000 0.000001 -0.000001 4.305378 -16.260331 34.920975 0.139782 -1.666331 18.434708 -0.000000 0.000002 0.000000 0.000001 -0.000000 -0.000001 0.000001 -0.000000 -0.000001 0.000001 -0.000000 -0.000002 -0.000001 -0.000002 -0.000002 -0.000001 -0.000001 -0.000002 -0.000001 -0.000002 -0.000002 -0.000001 -0.000001 -0.000001 0.000001 -0.000001 0.000001 0.000001 -0.000001 0.000001 0.000001 -0.000001 0.000001 0.000001 -0.000001 0.000001 0.000001 -0.000001 0.000001 0.000001 -0.000001 0.000001 0.000001 -0.000001 0.000001 -0.000001 -0.000002 0.000003 -0.000000 -0.000000 0.000000 
63.892422 74.994797 241.304489 0.510613 28.362651 -15.154566 -0.000000 -0.000001 -0.000001 -71.495961 16.645448 5.556520 108.427723 12.715312 0.961237 21.804988 3.280677 26.076793 -0.000001 0.000000 -0.000001 0.000001 0.000002 0.000000 -39.651704 6.611359 -4.424717 65.348620 10.458311 0.594119 -29.472393 -2.431817 14.881857 0.000000 0.000000 -0.000000 -0.000001 -0.000006 0.000000 5.205962 -0.667806 -1.302066 4.311016 -0.536962 1.522725 4.300142 -0.688778 1.521631 0.189330 0.842357 0.370124 0.189326 0.842353 0.370132 0.000001 0.000001 0.000000 0.189326 0.842359 0.370127 0.189323 0.842361 0.370130 -0.000001 0.000000 0.000000 0.000001 0.000001 -0.000000 0.523713 -0.270280 -7.835309 34.348567 -17.343302 -56.852125 -0.000003 -59.199326 -0.000017 -16.618883 -33.493083 29.916782 5.358054 -0.141364 9.666155 3.545749 27.155809 3.560557 -0.000000 0.000003 -0.000003 -1.578845 0.825930 -19.703504 0.405084 2.870999 -21.069209 -0.000001 0.000002 0.000001 0.409501 7.162238 -25.647937 0.416500 2.993229 -22.185339 -0.000001 -0.000001 -0.000000 2.386874 10.570833 -32.882368 0.471672 2.115266 -18.421982 0.000004 -0.000001 0.000001 2.967947 13.388259 -36.938903 0.139963 1.667040 -18.441912 -0.000001 -0.000004 0.000003 0.000000 -0.000001 0.000001 0.000000 -0.000001 0.000001 0.000000 -0.000000 0.000000 0.000001 0.000003 -0.000001 0.000001 0.000003 -0.000000 0.000001 0.000003 -0.000001 0.000001 0.000003 -0.000001 0.730130 -2.285043 12.250235 5.243295 22.564737 51.239423 0.000185 93.514934 -0.000181 -16.491818 27.969625 -4.873432 0.789365 -8.211543 -4.825400 0.020110 -13.361251 -9.371035 0.000001 0.000000 0.000003 -1.070491 -2.247362 17.231261 0.405444 -2.871951 21.079320 -0.000002 -0.000001 -0.000000 0.439001 -7.256194 26.595134 0.417442 -2.995663 22.211553 -0.000002 0.000001 0.000000 2.698258 -11.184210 32.166089 0.472421 -2.116942 18.440362 -0.000001 0.000001 0.000000 4.305387 -16.260327 34.920981 0.139783 -1.666332 18.434708 0.000001 0.000003 -0.000000 -0.000003 0.000003 0.000001 0.000001 0.000000 0.000000 -0.000003 0.000002 0.000002 0.000001 -0.000001 -0.000000 0.000001 -0.000001 0.000003 0.000001 -0.000001 -0.000000 0.000001 -0.000001 0.000005 0.000001 -0.000001 0.000001 0.000001 -0.000001 0.000001 0.000001 -0.000001 0.000001 0.000001 -0.000001 0.000001 0.000001 -0.000001 0.000001 0.000001 -0.000001 0.000001 0.000001 -0.000001 0.000001 0.000000 0.000001 -0.000002 -0.000000 -0.000001 -0.000001 
67.686615 74.833549 246.921097 0.003170 28.499999 -15.655839 0.000000 0.000000 -0.000000 -81.695032 15.112963 6.514896 106.479500 13.247260 0.938768 21.953336 3.255978 25.802431 0.000002 0.000001 -0.000000 -0.000000 -0.000001 0.000001 -31.722021 5.638375 -3.921723 65.837819 10.018647 0.711945 -36.915209 -2.230748 11.451687 0.000000 0.000000 -0.000001 -0.000002 -0.000001 -0.000002 5.609473 1.074046 -0.449327 4.651098 0.654913 1.633860 4.657231 0.491974 1.673785 0.161280 0.708941 0.371003 0.161283 0.708933 0.370992 0.000001 0.000000 0.000001 0.161210 0.708919 0.370998 0.161360 0.708936 0.370995 -0.000001 -0.000000 -0.000000 0.000001 0.000000 0.000000 0.472290 0.823559 -6.563500 41.287049 -17.715619 -58.148706 0.000016 -58.979817 0.000023 -18.820685 -33.533476 26.792940 5.358053 -0.141372 9.666154 3.545757 27.155816 3.560563 -0.000002 -0.000002 -0.000003 -1.578846 0.825925 -19.703508 0.405085 2.870998 -21.069209 0.000001 0.000004 0.000003 0.409501 7.162231 -25.647939 0.416497 2.993225 -22.185337 -0.000000 0.000001 -0.000001 2.386875 10.570829 -32.882368 0.471672 2.115269 -18.421980 0.000001 -0.000002 0.000000 2.967952 13.388247 -36.938906 0.139961 1.667041 -18.441909 0.000004 -0.000000 0.000005 0.000000 -0.000000 -0.000001 0.000000 -0.000000 -0.000001 0.000000 0.000000 -0.000002 0.000000 0.000005 -0.000000 0.000000 0.000004 -0.000000 0.000000 0.000005 -0.000000 0.000000 0.000004 -0.000001 0.625962 0.265411 11.021711 -6.297831 23.802338 54.826912 0.000021 96.646972 0.000030 -19.103276 24.520599 -3.410966 0.789356 -8.211544 -4.825409 0.020112 -13.361252 -9.371033 0.000001 -0.000004 0.000001 -1.070494 -2.247359 17.231252 0.405444 -2.871951 21.079313 -0.000000 -0.000000 0.000000 0.438997 -7.256191 26.595134 0.417447 -2.995663 22.211551 -0.000002 0.000000 0.000001 2.698256 -11.184211 32.166089 0.472417 -2.116938 18.440362 0.000002 0.000001 0.000000 4.305377 -16.260324 34.920978 0.139784 -1.666337 18.434708 0.000000 0.000002 0.000000 0.000001 0.000000 0.000003 0.000002 0.000000 0.000004 0.000001 0.000000 0.000003 0.000002 0.000000 -0.000003 0.000002 0.000000 -0.000002 0.000002 0.000000 -0.000003 0.000002 -0.000000 -0.000000 -0.000000 0.000001 -0.000000 -0.000000 0.000001 -0.000000 -0.000000 0.000001 -0.000000 -0.000000 0.000001 -0.000000 -0.000000 0.000001 -0.000000 -0.000000 0.000001 -0.000000 -0.000000 0.000001 -0.000000 0.000000 0.000003 -0.000001 0.000000 0.000000 -0.000000 
67.686615 74.833549 246.921097 0.003170 28.499999 -15.655839 0.000000 0.000000 -0.000000 -81.695032 15.112963 6.514896 106.479500 13.247260 0.938768 21.953336 3.255978 25.802431 0.000002 0.000001 -0.000000 -0.000000 -0.000001 0.000001 -31.722021 5.638375 -3.921723 65.837819 10.018647 0.711945 -36.915209 -2.230748 11.451687 0.000000 0.000000 -0.000001 -0.000002 -0.000001 -0.000002 5.609473 1.074046 -0.449327 4.651098 0.654913 1.633860 4.657231 0.491974 1.673785 0.161280 0.708941 0.371003 0.161283 0.708933 0.370992 0.000001 0.000000 0.000001 0.161210 0.708919 0.370998 0.161360 0.708936 0.370995 -0.000001 -0.000000 -0.000000 0.000001 0.000000 0.000000 0.472290 0.823559 -6.563500 41.287049 -17.715619 -58.148706 0.000016 -58.979817 0.000023 -18.820685 -33.533476 26.792940 5.358053 -0.141372 9.666154 3.545757 27.155816 3.560563 -0.000002 -0.000002 -0.000003 -1.578846 0.825925 -19.703508 0.405085 2.870998 -21.069209 0.000001 0.000004 0.000003 0.409501 7.162231 -25.647939 0.416497 2.993225 -22.185337 -0.000000 0.000001 -0.000001 2.386875 10.570829 -32.882368 0.471672 2.115269 -18.421980 0.000001 -0.000002 0.000000 2.967952 13.388247 -36.938906 0.139961 1.667041 -18.441909 0.000004 -0.000000 0.000005 0.000000 -0.000000 -0.000001 0.000000 -0.000000 -0.000001 0.000000 0.000000 -0.000002 0.000000 0.000005 -0.000000 0.000000 0.000004 -0.000000 0.000000 0.000005 -0.000000 0.000000 0.000004 -0.000001 0.625962 0.265411 11.021711 -6.297831 23.802338 54.826912 0.000021 96.646972 0.000030 -19.103276 24.520599 -3.410966 0.789356 -8.211544 -4.825409 0.020112 -13.361252 -9.371033 0.000001 -0.000004 0.000001 -1.070494 -2.247359 17.231252 0.405444 -2.871951 21.079313 -0.000000 -0.000000 0.000000 0.438997 -7.256191 26.595134 0.417447 -2.995663 22.211551 -0.000002 0.000000 0.000001 2.698256 -11.184211 32.166089 0.472417 -2.116938 18.440362 0.000002 0.000001 0.000000 4.305377 -16.260324 34.920978 0.139784 -1.666337 18.434708 0.000000 0.000002 0.000000 0.000001 0.000000 0.000003 0.000002 0.000000 0.000004 0.000001 0.000000 0.000003 0.000002 0.000000 -0.000003 0.000002 0.000000 -0.000002 0.000002 0.000000 -0.000003 0.000002 -0.000000 -0.000000 -0.000000 0.000001 -0.000000 -0.000000 0.000001 -0.000000 -0.000000 0.000001 -0.000000 -0.000000 0.000001 -0.000000 -0.000000 0.000001 -0.000000 -0.000000 0.000001 -0.000000 -0.000000 0.000001 -0.000000 0.000000 0.000003 -0.000001 0.000000 0.000000 -0.000000 
